<?xml version="1.0" encoding="UTF-8"?> <svg xmlns="http://www.w3.org/2000/svg" width="439" height="368" viewBox="0 0 439 368" fill="none"><rect x="1.5" y="1.5" width="436" height="365" rx="8.5" fill="white" stroke="#272F42" stroke-width="3"></rect><mask id="path-2-inside-1_633_498" fill="white"><path d="M87 52C87 48.6863 89.6863 46 93 46H352C355.314 46 358 48.6863 358 52V365H87V52Z"></path></mask><path d="M87 52C87 48.6863 89.6863 46 93 46H352C355.314 46 358 48.6863 358 52V365H87V52Z" fill="#EEF2FF"></path><path d="M85 52C85 47.5817 88.5817 44 93 44H352C356.418 44 360 47.5817 360 52H356C356 49.7909 354.209 48 352 48H93C90.7909 48 89 49.7909 89 52H85ZM358 365H87H358ZM85 365V52C85 47.5817 88.5817 44 93 44V48C90.7909 48 89 49.7909 89 52V365H85ZM352 44C356.418 44 360 47.5817 360 52V365H356V52C356 49.7909 354.209 48 352 48V44Z" fill="#272F42" mask="url(#path-2-inside-1_633_498)"></path><path d="M88 52C88 49.7909 89.7909 48 92 48H353C355.209 48 357 49.7909 357 52V86H88V52Z" fill="#272F42"></path><line x1="107" y1="131.5" x2="220" y2="131.5" stroke="#272F42" stroke-width="23"></line><line x1="107" y1="164" x2="220" y2="164" stroke="#272F42" stroke-width="4"></line><line x1="107" y1="173" x2="220" y2="173" stroke="#272F42" stroke-width="4"></line><line x1="225" y1="278" x2="338" y2="278" stroke="#272F42" stroke-width="18"></line><line x1="225" y1="308" x2="338" y2="308" stroke="#272F42" stroke-width="4"></line><line x1="225" y1="326" x2="338" y2="326" stroke="#272F42" stroke-width="4"></line><line x1="225" y1="317" x2="338" y2="317" stroke="#272F42" stroke-width="4"></line><line x1="225" y1="335" x2="338" y2="335" stroke="#272F42" stroke-width="4"></line><rect x="107" y="192" width="61" height="19" rx="9.5" fill="#272F42"></rect><rect x="240" y="120" width="97" height="90" stroke="black" stroke-width="2"></rect><rect x="108" y="269" width="97" height="68" stroke="black" stroke-width="2"></rect><path d="M337 120L240 209.5V120L337 209.5" stroke="#272F42" stroke-width="2" stroke-linecap="round" stroke-linejoin="round"></path><path d="M205 269L108 337V269L205 337" stroke="#272F42" stroke-width="2" stroke-linecap="round" stroke-linejoin="round"></path></svg> 